<svg xmlns="http://www.w3.org/2000/svg" viewBox="0 0 160.81 160.81" >
    <defs>
        <link href="../../css/animate.css" type="text/css" rel="stylesheet"
              xmlns="http://www.w3.org/1999/xhtml"/>
        <style>
            .cls-1{fill:#2c8cbc}.cls-2{fill:#f8ede3}.cls-3{fill:#58515c}
        </style>
    </defs>
    <title>
        calc-icon
    </title>
    <g id="Capa_2" class="animated zoomInDown bounce" data-name="Capa 2">
        <g id="Capa_1-2" data-name="Capa 1">
            <g id="Layer_2" data-name="Layer 2">
                <circle class="cls-1 " cx="80.4" cy="80.4" r="80.4"/>
                <path class="cls-2" d="M77.89 72.48a5.41 5.41 0 0 1-5.41 5.41H36.82a5.41 5.41 0 0 1-5.41-5.41V36.82a5.41 5.41 0 0 1 5.41-5.41h35.66a5.41 5.41 0 0 1 5.41 5.41zM129.4 72.48a5.41 5.41 0 0 1-5.4 5.41H88.33a5.41 5.41 0 0 1-5.41-5.41V36.82a5.41 5.41 0 0 1 5.41-5.41H124a5.41 5.41 0 0 1 5.41 5.41v35.66zM77.89 124a5.41 5.41 0 0 1-5.41 5.41H36.82a5.41 5.41 0 0 1-5.41-5.41V88.33a5.41 5.41 0 0 1 5.41-5.41h35.66a5.41 5.41 0 0 1 5.41 5.41zM129.4 124a5.41 5.41 0 0 1-5.4 5.4H88.33a5.41 5.41 0 0 1-5.41-5.4V88.33a5.41 5.41 0 0 1 5.41-5.41H124a5.41 5.41 0 0 1 5.41 5.41V124z"/>
                <path class="cls-3" d="M63.3 52.06h-5v-5A3.14 3.14 0 0 0 55.21 44a3.14 3.14 0 0 0-3.13 3.13v5h-5a3.13 3.13 0 1 0 0 6.27h5v5a3.14 3.14 0 0 0 3.13 3.13 3.14 3.14 0 0 0 3.13-3.13v-5h5a3.13 3.13 0 1 0 0-6.27zM113.7 58.32H97.51a3.14 3.14 0 0 1-3.13-3.13 3.14 3.14 0 0 1 3.13-3.13h16.19a3.14 3.14 0 0 1 3.13 3.13 3.14 3.14 0 0 1-3.13 3.13zM63.14 102.08L51.7 113.53a3.14 3.14 0 0 1-4.43 0 3.14 3.14 0 0 1 0-4.43l11.44-11.45a3.14 3.14 0 0 1 4.43 0 3.14 3.14 0 0 1 0 4.43z"/>
                <path class="cls-3" d="M51.7 97.65l11.44 11.45a3.14 3.14 0 0 1 0 4.43 3.14 3.14 0 0 1-4.43 0l-11.44-11.45a3.14 3.14 0 0 1 0-4.43 3.14 3.14 0 0 1 4.43 0zM113.7 108.18H97.51a3.13 3.13 0 0 0 0 6.27h16.19a3.13 3.13 0 0 0 0-6.27zM97.51 103h16.19a3.13 3.13 0 0 0 0-6.27H97.51a3.13 3.13 0 0 0 0 6.27z"/>
            </g>
        </g>
    </g>
</svg>
