<svg xmlns="http://www.w3.org/2000/svg" viewBox="0 0 167.12 167.12">
    <defs>
        <style>
            .cls-1{fill:#2c78ac}.cls-2{fill:#2c8cbc}.cls-3{fill:#ededec}
        </style>
    </defs>
    <title>
        share-icon
    </title>
    <g id="Capa_2" data-name="Capa 2">
        <g id="Capa_1-2" data-name="Capa 1">
            <g id="layer1">
                <path id="path5742" class="cls-1" d="M83.56 0a83.56 83.56 0 0 0 0 167.12c1.83 0 3.6-.17 5.4-.29a82.44 82.44 0 0 0 17.67-3.13 84.11 84.11 0 0 0 60.49-80.14 83.81 83.81 0 0 0-.67-10c-.08-.67-.22-1.31-.32-2A83.49 83.49 0 0 0 83.56 0z"/>
            </g>
            <g id="layer4">
                <path id="rect2989" class="cls-2" d="M82.34.09A83.57 83.57 0 0 0 62 164.37c1.76.47 3.52.78 5.28 1.13a81.89 81.89 0 0 0 16.28 1.5V.09z"/>
                <path id="path3" class="cls-3" d="M114.09 97.41a15.83 15.83 0 0 0-11.51 5L68.74 85.8a14.47 14.47 0 0 0 0-4.7l33.79-16.39a15.88 15.88 0 1 0-4.35-10.9 16 16 0 0 0 .19 2.32L64.59 72.52a15.9 15.9 0 1 0 0 21.85l33.84 16.57a15.89 15.89 0 1 0 15.7-13.52z"/>
            </g>
        </g>
    </g>
</svg>
