<svg xmlns="http://www.w3.org/2000/svg" viewBox="0 0 133.58 140.37">
    <defs>
        <style>
            .cls-1{fill:#368dc9}.cls-2{fill:#439c65}.cls-3{fill:#2c78ab}.cls-4{fill:#38995c}.cls-5{fill:#53a168;stroke:#4a7f4a;stroke-miterlimit:10}.cls-6{fill:#fff}
        </style>
    </defs>
    <title>
        tips-icon
    </title>
    <g id="Capa_2" data-name="Capa 2">
        <g id="Capa_1-2" data-name="Capa 1">
            <path class="cls-1" d="M115.1 34.33A57.06 57.06 0 1 1 40 4.75a57.08 57.08 0 0 1 75.1 29.58z"/>
            <path class="cls-2" d="M40 4.75a57.4 57.4 0 0 0-14.57 9.17c.71.48.84.46 1.69 1 4.27 2.88 4.79 3.12 5.51 2.91.43-.13 1.55-.52 2.59-1l1.93-.84-.09-3.85L37 8.36l4.11-3.56c.41-.35.51-.41.91-.75-.65.26-1.34.41-2.02.7zm11.25-3.47c-.06.16 1.3 1.16 3.14 2.35 2.31 1.49 3.32 2.2 3.52 2A55.52 55.52 0 0 0 61.18.14a56.69 56.69 0 0 0-9.78 1.08zM15.49 25.14A57.59 57.59 0 0 0 8 40.79a56.9 56.9 0 0 0-.55 30.11 29.49 29.49 0 0 1 2.91-1.45c4.5-2 4-2 6.55-.37 1.43.89 1.46.87 2.81.37 1.61-.6 1.57-.65-.35-2.85a15.7 15.7 0 0 1-1.56-2c-.14-.31.39-1.55 1.51-3.84 1.88-3.83 1.81-3.29.23-5.58-.33-.47-.29-1 .2-2.39.58-1.63.6-1.59 1.78-2l1.19-.52-.69-2a17.75 17.75 0 0 1-.76-2.15c0-.1 2.22-3.19 4.86-6.71s4.91-6.52 5-6.78-.92-1.06-6.9-4.07c-3.84-1.91-7.07-3.56-7.23-3.7-.08-.02-1.19.23-1.51.28zM72.31 3.79c-.25-.07-.56.45-1 1.69l-.61 1.86L72 8c.79.39 1.85.87 2.41 1.07 1.23.45 1.35.64 1.25 2.46a3.31 3.31 0 0 0 .2 1.68c.2.21.77 0 2.51-.74a13.33 13.33 0 0 0 2.46-1.25 3.86 3.86 0 0 0-.27-1.83L80 7.69l-2.37-.56c-2.1-.54-2.47-.76-3.67-1.94a8.62 8.62 0 0 0-1.65-1.4zM69.36 10c-.31.12-.75 4-.53 4.47a4.23 4.23 0 0 0 1.77.82 6.1 6.1 0 0 0 1.72.31 10.74 10.74 0 0 0 1.11-3.13c0-.32-.52-.74-1.88-1.48a8.19 8.19 0 0 0-2.19-.99zm15.89-5.3c.15.18.51.38.55.47a13.63 13.63 0 0 1-1.26 3.2c-1.14 2.49-1.25 2.85-2.22 3.44S81 12.78 80 14.59a14.06 14.06 0 0 0-1.16 2.62c0 .17.71.61 1.48.95 1.6.7 1.84 1 1.68 2.63l-.21 1.15-1.84.63c-1 .41-2.4 1-3 1.15-1.46.44-1.4.46 1.21 3.19 3.86 4 4.19 4.37 4.49 4.23a61 61 0 0 0 2.63-5.74A54.31 54.31 0 0 1 88 19.59a5.64 5.64 0 0 1 1-.09c.83-.05.91-.19 1.7-1.8l.88-1.62 1.72.31c4 .77 4.54 1.05 5.4 2.25 1.33 1.85 2 2.67 2.19 2.58a20.14 20.14 0 0 0 1-4.31c0-.54-.36-.67-3.14-2.35a21.8 21.8 0 0 1-3.29-2.28 1.36 1.36 0 0 1 .18-.79c.18-.35.86-.13 2.37.56A57.48 57.48 0 0 0 85.25 4.7zm12.19 15c-.3.14-.68 2.12-.41 2.3a2.33 2.33 0 0 0 .94.12 3.85 3.85 0 0 0 1-.09c.36-.14.39-.29 0-.87-.71-.95-1.32-1.52-1.53-1.43zm-3.24 3.53l-3.73 2-3.67 2.14-4.49 9.2-4.4 9 2.74 5.88c1.51 3.22 2.87 6 3 6.12a24.57 24.57 0 0 0 3.41 1.34c1.77.56 3.57 1.06 4.07 1.23.91.31 1.12.29 6.78-1.89l5.63-2.09 3.17.39c1.72.29 3.21.66 3.31.68s-.15.55-.51 1.28l-.65 1.34 2.47 1.23c1.37.67 3.2 1.67 4.1 2.1l1.55.74 1.1 2.53.71 1.64A56.38 56.38 0 0 0 108 22.4a6.24 6.24 0 0 0-1.15-.21 7.58 7.58 0 0 0-1.12 1.9 8 8 0 0 1-1.12 1.9c-.15.06-1.62.22-3.36.4l-3.25.35-.52-1.19a2.52 2.52 0 0 0-1.86-1.84zM23 66.07c-.08.12.06.54.3 1.11.43 1 .45 1.09 1.75 1.18 1.6.11 1.87.13 1.47-.29-.6-.63-3.36-2.21-3.52-2zm-3.95 6a6.13 6.13 0 0 0 .63 3.08 21.82 21.82 0 0 0 3.3-.55c1.83-.39 2.84-.72 3-.93.26-.48 0-2.22-.31-2.34a35.56 35.56 0 0 0-6.6.67zm-5.32 4.43l-1.25 1.61a10.79 10.79 0 0 1-1.78 2 .84.84 0 0 1-.15.06 57.22 57.22 0 0 0 3.5 6.44l1.3.14 1.65-.9 1.63-.71 1.95 1.63a12 12 0 0 0 2.37 1.8 17.44 17.44 0 0 0 3-1.15l2.38-1 .84 1.94c.85 2 .87 2 .51 4A6.69 6.69 0 0 0 29.6 95c.15.32 2.76 2.93 5.71 5.83l5.25 5.17 3.11.24c2.27.09 3.09.2 3.24.53 0 .11.84 3.6 1.31 5.45a56.43 56.43 0 0 0 20.53 1.68c2.92-8.23 5.66-16.17 6.08-17.32l.67-1.71-1.06-3.25c-.54-1.86-1-3.57-1.1-3.76a13.47 13.47 0 0 1 .73-2.8 15.19 15.19 0 0 0 .64-2.58c0-.08-3.1-.68-6.76-1.31L61.26 80l-1.78.78c-1.22.53-1.89.73-2.21.61a8.1 8.1 0 0 1-1.69-2.27A19 19 0 0 0 54 76.8a12.52 12.52 0 0 0-2.74 1 17 17 0 0 1-3 1.15c-.25 0-.79-1-1.48-2.18a8.53 8.53 0 0 0-1.42-2 21.92 21.92 0 0 0-3.84 1.32c-3.27 1.28-3.88 1.41-5.89 1.5l-2.25.1-2 2.29-2.22 2.21-2.82 1.23c-3.23 1.4-2.82 1.64-4.52-1a7.29 7.29 0 0 0-1.32-1.82 7.86 7.86 0 0 0-1.62.35l-1.26.36-.24-1a22.49 22.49 0 0 1-.82-2.3l-.43-1.4-1.13-.15zm15.47-5.16a3 3 0 0 0 .15 1.17l.17.81 5.39-.22c5.42-.35 6.28-.62 6.69-1.68.16-.4.1-.4-.7-.4-.51 0-3.31-.14-6.24-.12-3.22.03-5.39.25-5.46.44z"/>
            <path class="cls-3" d="M62.28 0a57.1 57.1 0 0 0 .16 114.2A114.45 114.45 0 0 1 62.43 0z"/>
            <path class="cls-4" d="M61.13.17a56 56 0 0 0-9.76 1s-.16.15-.16.16a17.53 17.53 0 0 0 3.27 2.27c2.28 1.48 3.17 2.14 3.37 1.94A49.7 49.7 0 0 0 61.13.17zM42 4.06c-.66.26-1.29.36-1.95.65a57.37 57.37 0 0 0-14.6 9.08c.71.48.78.57 1.62 1.14 4.27 2.88 4.8 3.13 5.52 2.92.43-.13 1.55-.55 2.6-1l1.94-.81v-3.86l-.16-3.89 4.22-3.57c.39-.36.39-.32.81-.66zM17 24.83s-1.14.27-1.46.33a57.47 57.47 0 0 0-7.62 15.56 57 57 0 0 0-.49 30.18 30.91 30.91 0 0 1 2.92-1.46c4.5-2 3.92-1.92 6.49-.32 1.43.89 1.57.83 2.92.32 1.61-.6 1.44-.72-.49-2.92a12.23 12.23 0 0 1-1.46-1.95c-.13-.31.33-1.44 1.46-3.73 1.88-3.83 1.91-3.38.33-5.68-.33-.47-.33-1.06.16-2.43.58-1.63.61-1.52 1.78-1.95l1.14-.49-.68-1.94a22.35 22.35 0 0 1-.81-2.27c0-.09 2.22-3.13 4.87-6.65s4.93-6.56 5-6.81-1-1-7-4.06c-3.77-1.95-6.85-3.64-7.06-3.73zM23 66c-.08.12.08.57.32 1.14.43 1 .48 1 1.79 1.14 1.6.11 1.87.09 1.46-.32-.63-.62-3.43-2.13-3.57-1.96zm11.68 4.9c-3.23 0-5.45.3-5.52.49a3.09 3.09 0 0 0 .16 1.14l.17.81 5.35-.34c5.42-.35 6.4-.57 6.82-1.62.16-.4 0-.33-.81-.32-.52 0-3.24-.19-6.17-.16zm-9.08.32a34.14 34.14 0 0 0-6.49.81 6.1 6.1 0 0 0 .65 3.08 17.86 17.86 0 0 0 3.24-.48c1.83-.39 2.8-.76 2.92-1 .26-.46.01-2.29-.32-2.41zm19.8 3.57a20.61 20.61 0 0 0-3.91 1.3c-3.27 1.28-3.83 1.37-5.84 1.46l-2.27.16-2.1 2.29-2.11 2.11-2.92 1.3c-3.25 1.38-2.85 1.53-4.55-1.16a5.58 5.58 0 0 0-1.3-1.62 6.59 6.59 0 0 0-1.46.32l-1.3.32-.32-1a21.79 21.79 0 0 1-.81-2.27l-.33-1.46-1.3-.16h-1.13L12.45 78a12.51 12.51 0 0 1-1.78 2.11h-.16a58.14 58.14 0 0 0 3.57 6.49h1.3l1.62-.78 1.62-.65 1.95 1.62a12.34 12.34 0 0 0 2.27 1.78 16.9 16.9 0 0 0 3.08-1.14l2.43-1.14.81 1.95c.86 2 .85 2.06.49 4.06a6.71 6.71 0 0 0 0 2.76c.15.32 2.73 2.95 5.68 5.84l5.19 5 3.07.32c2.28.09 3.11.15 3.27.49.05.11.83 3.67 1.3 5.52a58.67 58.67 0 0 0 14.27 1.95 112.27 112.27 0 0 1-13.29-35.5c-.26.07-.78.33-.83.32-.26 0-.78-1.06-1.45-2.27a7.73 7.73 0 0 0-1.45-1.95z"/>
            <path id="leaf" class="cls-5" d="M78.91 102.69c-.8-4.8-8.2-31.7 20.6-42.1.3-.1 23.9-7.6 33.4-31.3.2-.4 0-.5 0 0 .5 14.3 3.2 78.4-51 75.8a.9.9 0 0 0-.5.1c-2.6.7-12.2 4.3-6.4 18.1.8 2-.5 1.1-2.6.5-1.8 0-8.1-11.7 6.2-20.5a.86.86 0 0 0 .3-.6z"/>
            <path id="leaf-2" data-name="leaf" class="cls-5" d="M69.07 119.85c15.81 5.65 12.06 18.4 10.3 18.78-1.93 1-3 2.17-2.65 0 2.82-14.7-7.31-16.24-10-16.39a.9.9 0 0 0-.51 0C13.72 136 3.12 72.77.65 58.67c-.1-.49-.28-.35 0 0C14.84 79.9 39.48 82.36 39.8 82.39c30.33 4.22 28.65 32.07 28.86 36.93a.86.86 0 0 0 .41.53z"/>
            <g id="medium">
                <path class="cls-6" d="M58.23 114c.2-.5.4-1.1.6-1.7s.4-1.3.6-2c0-.3.2-.7.2-1a3.55 3.55 0 0 0 .2-1c0-.3.1-.6.1-.9a2.2 2.2 0 0 0 .1-.8v-1.8a4.2 4.2 0 0 1 .2.5 3.32 3.32 0 0 1 .4 1.3 2.77 2.77 0 0 1 .1.9v1a8.33 8.33 0 0 1-.3 2.2 10.33 10.33 0 0 1-.7 2.1 13.14 13.14 0 0 1-.9 1.7 7.08 7.08 0 0 1-1.2 1.4s.2-.74.6-1.9zM45.23 120.36c.7-.1 1.7-.1 2.6-.2a5.9 5.9 0 0 0 1.4-.2 10.38 10.38 0 0 0 1.2-.3 6.89 6.89 0 0 0 .8-.3.77.77 0 0 1 .3-.1 1.24 1.24 0 0 1-.3.2 2.17 2.17 0 0 1-.7.6 3.34 3.34 0 0 1-1.2.5l-1.5.3h-1.5c-.5-.1-.9-.1-1.3-.2-.7-.2-1.2-.4-1.2-.4s.5 0 1.4.1zM37 116.86a8.08 8.08 0 0 1 1.6-.1c.6-.1 1.2-.1 1.8-.2a2.77 2.77 0 0 0 .9-.1c.3-.1.6-.1.9-.2s.5-.1.8-.2.5-.1.7-.2.4-.1.6-.2.4-.1.5-.2l.4-.2-.3.3c-.2.2-.6.4-1 .7a1.61 1.61 0 0 1-.7.4 6.89 6.89 0 0 1-.8.3 10.62 10.62 0 0 1-1.9.4 12.1 12.1 0 0 1-1.9.1 8.81 8.81 0 0 1-1.7-.2 7 7 0 0 1-1.6-.5s.63 0 1.7.1zM29.93 111.86c.6.1 1.3.1 2 .2a3.75 3.75 0 0 0 1.1.1h2.4c.4-.1.7 0 1.1-.1a3.75 3.75 0 0 0 1.1-.1c.3-.1.6-.1.9-.2a3.09 3.09 0 0 1 .8-.2 1.42 1.42 0 0 1 .6-.2 2.8 2.8 0 0 1 .6-.1 5.2 5.2 0 0 0-.5.3 4.89 4.89 0 0 1-1.3.8 4.18 4.18 0 0 1-1 .4c-.3.1-.7.2-1.1.3a21.05 21.05 0 0 1-2.5.2 10.15 10.15 0 0 1-2.5-.2q-1.2-.3-2.1-.6a7.78 7.78 0 0 1-1.9-.9zM24.83 105.86a15 15 0 0 1 2 .2 3.75 3.75 0 0 0 1.1.1h2.4c.4-.1.7 0 1.1-.1a3.75 3.75 0 0 0 1.1-.1 2.77 2.77 0 0 0 .9-.1 3.09 3.09 0 0 1 .8-.2 1.42 1.42 0 0 1 .6-.2 2.8 2.8 0 0 1 .6-.1 5.2 5.2 0 0 0-.5.3 5 5 0 0 1-1.3.7 4.18 4.18 0 0 1-1 .4c-.3.1-.7.2-1.1.3a10.55 10.55 0 0 1-2.5.2 9.86 9.86 0 0 1-2.4-.3q-1.2-.3-2.1-.6a7.78 7.78 0 0 1-1.9-.9s.8.1 2.2.4zM20.63 99c.6.2 1.3.4 2 .6.3.1.7.2 1.1.3a5 5 0 0 1 1.2.2 5 5 0 0 0 1.2.2c.4 0 .7.1 1.1.1a4.48 4.48 0 0 0 1.1.1h1.8a1.27 1.27 0 0 1 .6-.1h.6a5.2 5.2 0 0 0-.5.3c-.3.1-.8.3-1.4.5-.3.1-.6.1-1 .2a3.75 3.75 0 0 1-1.1.1 21.05 21.05 0 0 1-2.5-.2 13.7 13.7 0 0 1-2.4-.7 17.15 17.15 0 0 1-1.9-.9 8 8 0 0 1-1.7-1.2 9.18 9.18 0 0 0 1.8.5zM54.13 109.56a21.9 21.9 0 0 0 .7-2.3c.1-.4.2-.9.3-1.3s.2-.9.3-1.4.2-.9.3-1.4.2-.9.2-1.3a6.88 6.88 0 0 0 .2-1.3c0-.4.1-.7.1-1.1s.1-.7.1-1V97a3.22 3.22 0 0 1 .2.6c.1.4.2 1 .3 1.7a4.87 4.87 0 0 1 .1 1.2v1.3a14.52 14.52 0 0 1-.4 2.8 27.59 27.59 0 0 1-.8 2.7 17.43 17.43 0 0 1-1 2.3 18.28 18.28 0 0 1-1.3 2.1zM48.43 105.46c.2-.8.4-1.7.7-2.7.1-.5.3-1 .4-1.5a9.36 9.36 0 0 0 .4-1.6c.1-.5.2-1.1.3-1.6s.2-1.1.3-1.6a7.72 7.72 0 0 0 .2-1.5 5.85 5.85 0 0 0 .2-1.3c0-.4.1-.8.1-1.1a3.44 3.44 0 0 0 .1-.9 4.53 4.53 0 0 0 .1-.8 7.35 7.35 0 0 1 .2.8 17.78 17.78 0 0 1 .3 2 6.6 6.6 0 0 1 .1 1.4c0 .5-.1 1-.1 1.5-.1 1.1-.3 2.2-.5 3.3a16.81 16.81 0 0 1-.9 3.2 16.87 16.87 0 0 1-1.1 2.7 13.7 13.7 0 0 1-1.4 2.4s.3-1.1.6-2.7zM42.63 99.66c.2-.9.4-2 .6-3.1.1-.5.2-1.1.3-1.7a11 11 0 0 1 .2-1.8 11 11 0 0 0 .2-1.8 9.85 9.85 0 0 0 .2-1.7c0-.5.1-1.1.1-1.6v-4.6s.1.3.3.8a16.22 16.22 0 0 1 .6 2.2c.1.5.1 1 .2 1.5a9.15 9.15 0 0 1 .1 1.7 10.82 10.82 0 0 1 0 1.8c-.1.7-.1 1.3-.2 1.9a32.87 32.87 0 0 1-.7 3.6 21.08 21.08 0 0 1-1 3 14.44 14.44 0 0 1-1.4 2.8zM38.23 96c.1-.7.2-1.5.3-2.3a5.7 5.7 0 0 1 .1-1.3c0-.4.1-.8.1-1.3v-1.3c-.1-.4 0-.9-.1-1.3a4.87 4.87 0 0 0-.1-1.2c-.1-.4-.1-.8-.2-1.1s-.1-.6-.2-.9a6.37 6.37 0 0 0-.2-.7 3.22 3.22 0 0 0-.2-.6 3.61 3.61 0 0 1 .4.5 6.13 6.13 0 0 0 .4.6 3.55 3.55 0 0 0 .4.9 3.58 3.58 0 0 1 .4 1.1c.1.4.2.8.3 1.3a6.75 6.75 0 0 1 .2 1.4v1.5a23.58 23.58 0 0 1-.4 2.8 15.46 15.46 0 0 1-.7 2.3 9.49 9.49 0 0 1-1.1 2.1s.2-.94.6-2.5zM31.93 90.86c.1-.4.3-.9.4-1.4s.2-1.1.3-1.6c0-.3.1-.5.1-.8v-1.5a2 2 0 0 1-.1-.7c0-.2-.1-.4-.1-.6s-.1-.3-.1-.4a1.58 1.58 0 0 1-.1-.4 1.24 1.24 0 0 1 .2.3 9.25 9.25 0 0 0 .5 1 6.37 6.37 0 0 1 .2.7 1.88 1.88 0 0 1 .2.8 5.44 5.44 0 0 1 0 1.8 8.47 8.47 0 0 1-.4 1.7c-.2.5-.5 1-.7 1.4a7.33 7.33 0 0 1-.9 1.2z"/>
            </g>
            <g id="medium-2" data-name="medium">
                <path class="cls-6" d="M86.43 93.49a7.08 7.08 0 0 1-1.2-1.4 13.14 13.14 0 0 1-.9-1.7 10.33 10.33 0 0 1-.7-2.1 8.33 8.33 0 0 1-.3-2.2v-1a2.77 2.77 0 0 1 .1-.9 3.32 3.32 0 0 1 .4-1.3 4.2 4.2 0 0 1 .2-.5v1.8a2.2 2.2 0 0 0 .1.8c0 .3.1.6.1.9a3.55 3.55 0 0 0 .2 1c0 .3.2.7.2 1 .2.7.4 1.3.6 2s.4 1.2.6 1.7c.4 1.2.6 1.9.6 1.9zM100.23 97.89s-.5.2-1.2.4c-.4.1-.8.1-1.3.2h-1.5l-1.5-.3a3.34 3.34 0 0 1-1.2-.5 2.17 2.17 0 0 1-.7-.6 1.24 1.24 0 0 1-.3-.2.77.77 0 0 1 .3.1 6.89 6.89 0 0 0 .8.3 10.38 10.38 0 0 0 1.2.3 5.9 5.9 0 0 0 1.4.2c.9.1 1.9.1 2.6.2.9-.1 1.4-.1 1.4-.1zM108.73 94.39a7 7 0 0 1-1.6.5 8.81 8.81 0 0 1-1.7.2 12.1 12.1 0 0 1-1.9-.1 10.62 10.62 0 0 1-1.9-.4 6.89 6.89 0 0 1-.8-.3 1.61 1.61 0 0 1-.7-.4c-.4-.3-.8-.5-1-.7l-.3-.3.4.2c.1.1.3.1.5.2s.4.1.6.2.5.1.7.2.5.1.8.2.6.1.9.2a2.77 2.77 0 0 0 .9.1c.6.1 1.2.1 1.8.2a8.08 8.08 0 0 1 1.6.1c1.1-.1 1.7-.1 1.7-.1zM116.43 89.19a7.78 7.78 0 0 1-1.9.9q-.9.3-2.1.6a10.15 10.15 0 0 1-2.5.2 21.05 21.05 0 0 1-2.5-.2c-.4-.1-.8-.2-1.1-.3a4.18 4.18 0 0 1-1-.4 4.89 4.89 0 0 1-1.3-.8 5.2 5.2 0 0 0-.5-.3 2.8 2.8 0 0 1 .6.1 1.42 1.42 0 0 1 .6.2 3.09 3.09 0 0 1 .8.2c.3.1.6.1.9.2a3.75 3.75 0 0 0 1.1.1c.4.1.7 0 1.1.1H111a3.75 3.75 0 0 0 1.1-.1c.7-.1 1.4-.1 2-.2zM121.43 83.09a7.78 7.78 0 0 1-1.9.9q-.9.3-2.1.6a9.86 9.86 0 0 1-2.4.3 10.55 10.55 0 0 1-2.5-.2c-.4-.1-.8-.2-1.1-.3a4.18 4.18 0 0 1-1-.4 5 5 0 0 1-1.3-.7 5.2 5.2 0 0 0-.5-.3 2.8 2.8 0 0 1 .6.1 1.42 1.42 0 0 1 .6.2 3.09 3.09 0 0 1 .8.2 2.77 2.77 0 0 0 .9.1 3.75 3.75 0 0 0 1.1.1c.4.1.7 0 1.1.1h2.4a3.75 3.75 0 0 0 1.1-.1 15 15 0 0 1 2-.2c1.4-.3 2.2-.4 2.2-.4zM125.23 76.09a8 8 0 0 1-1.7 1.2 17.15 17.15 0 0 1-1.9.9 13.7 13.7 0 0 1-2.4.7 21.05 21.05 0 0 1-2.5.2 3.75 3.75 0 0 1-1.1-.1c-.4-.1-.7-.1-1-.2-.6-.2-1.1-.4-1.4-.5a5.2 5.2 0 0 0-.5-.3h.6a1.27 1.27 0 0 1 .6.1h1.8a4.48 4.48 0 0 0 1.1-.1c.4 0 .7-.1 1.1-.1a5 5 0 0 0 1.2-.2 5 5 0 0 1 1.2-.2c.4-.1.8-.2 1.1-.3.7-.2 1.4-.4 2-.6a9.18 9.18 0 0 0 1.8-.5zM90.63 89.29a18.28 18.28 0 0 1-1.3-2.1 17.43 17.43 0 0 1-1-2.3 27.59 27.59 0 0 1-.8-2.7 14.52 14.52 0 0 1-.4-2.8v-1.3a4.87 4.87 0 0 1 .1-1.2c.1-.7.2-1.3.3-1.7a3.22 3.22 0 0 1 .2-.6v1.5c0 .3.1.6.1 1s.1.7.1 1.1a6.88 6.88 0 0 0 .2 1.3c0 .4.2.9.2 1.3s.2.9.3 1.4.2.9.3 1.4.2.9.3 1.3a21.9 21.9 0 0 0 .7 2.3zM96.23 85.79a13.7 13.7 0 0 1-1.4-2.4 16.87 16.87 0 0 1-1.1-2.7 16.81 16.81 0 0 1-.9-3.2c-.2-1.1-.4-2.2-.5-3.3 0-.5-.1-1-.1-1.5a6.6 6.6 0 0 1 .1-1.4 17.78 17.78 0 0 1 .3-2 7.35 7.35 0 0 1 .2-.8 4.53 4.53 0 0 0 .1.8 3.44 3.44 0 0 0 .1.9c0 .3.1.7.1 1.1a5.85 5.85 0 0 0 .2 1.3 7.72 7.72 0 0 0 .2 1.5c.1.5.2 1 .3 1.6s.2 1.1.3 1.6a9.36 9.36 0 0 0 .4 1.6c.1.5.3 1 .4 1.5.3 1 .5 1.9.7 2.7.3 1.6.6 2.7.6 2.7zM101.93 80.29a14.44 14.44 0 0 1-1.4-2.8 21.08 21.08 0 0 1-1-3 32.87 32.87 0 0 1-.7-3.6c-.1-.6-.1-1.2-.2-1.9a10.82 10.82 0 0 1 0-1.8 9.15 9.15 0 0 1 .1-1.7c.1-.5.1-1 .2-1.5a16.22 16.22 0 0 1 .6-2.2c.2-.5.3-.8.3-.8v4.6c0 .5.1 1.1.1 1.6a9.85 9.85 0 0 0 .2 1.7 11 11 0 0 0 .2 1.8 11 11 0 0 1 .2 1.8c.1.6.2 1.2.3 1.7.2 1.1.4 2.2.6 3.1zM106.43 76.09a9.49 9.49 0 0 1-1.1-2.1 15.46 15.46 0 0 1-.7-2.3 23.58 23.58 0 0 1-.4-2.8v-1.5a6.75 6.75 0 0 1 .2-1.4c.1-.5.2-.9.3-1.3a3.58 3.58 0 0 1 .4-1.1 3.55 3.55 0 0 0 .4-.9 6.13 6.13 0 0 0 .4-.6 3.61 3.61 0 0 1 .4-.5 3.22 3.22 0 0 0-.2.6 6.37 6.37 0 0 0-.2.7c-.1.3-.1.6-.2.9s-.1.7-.2 1.1a4.87 4.87 0 0 0-.1 1.2c-.1.4 0 .9-.1 1.3v1.3c0 .5.1.9.1 1.3a5.7 5.7 0 0 1 .1 1.3c.1.8.2 1.6.3 2.3.4 1.6.6 2.5.6 2.5zM112.63 70a7.33 7.33 0 0 1-.9-1.2c-.2-.4-.5-.9-.7-1.4a8.47 8.47 0 0 1-.4-1.7 5.44 5.44 0 0 1 0-1.8 1.88 1.88 0 0 1 .2-.8 6.37 6.37 0 0 1 .2-.7 9.25 9.25 0 0 0 .5-1 1.24 1.24 0 0 1 .2-.3 1.58 1.58 0 0 1-.1.4c0 .1-.1.3-.1.4s-.1.4-.1.6a2 2 0 0 1-.1.7v1.5c0 .3.1.5.1.8.1.5.2 1.1.3 1.6s.3 1 .4 1.4z"/>
            </g>
        </g>
    </g>
</svg>
